<?xml version="1.0" encoding="UTF-8"?>
<!-- Created with Inkscape (http://www.inkscape.org/) -->
<svg width="130mm" height="130mm" version="1.1" viewBox="0 0 130 130" xml:space="preserve" xmlns="http://www.w3.org/2000/svg"><g transform="translate(-35.36 -68.79)"><g transform="translate(-.33857 -5.8127)"><path d="m165.7 139.6a65 65 0 0 1-65 65 65 65 0 0 1-65-65 65 65 0 0 1 65-65 65 65 0 0 1 65 65z" fill="#fff"/><g transform="translate(-5 -4.0064)"><g fill="#a7a7a7"><path d="m94.606 83.961c-0.86855 0.05857-1.233 0.8513-1.233 1.5296 0 0.77523 1.6793 6.4603 0.47336 8.9152-11.026 2.6272-15.311 9.4537-15.311 9.4537s-8.0755-1.8107-13.179 4.9098c-2.7839 3.6659-4.2471 8.564-4.1992 13.803 0.04249 4.6479-0.50718 6.4282-1.2056 12.834-0.83589 7.667-0.0863 15.16-0.0863 15.16s1.1199-1.8516 2.2397-9.001c1.1198-7.1494 2.4116-10.552 4.8235-12.878 1.9783-1.9077 4.393-3.9191 4.393-3.9191h-5.5557s-0.68893-10.939 4.7377-14.816c5.4266-3.8762 9.2005-4.1884 11.058-4.1579 2.685 0.35745 4.6748 1.881 7.3319 1.9963 5.6367 0.24459 9.4125 0.24755 12.146 0.22376 2.9098-0.0253 2.8419-2.0623 1.249-5.7712-1.3893-3.2348-3.0032-5.1399-4.5656-8.8289-1.5505-3.6608-1.478-9.227-2.713-9.432-0.14506-0.02408-0.27952-0.03059-0.40359-0.02222zm1.5012 12.443c0.45589 0.01961 2.004 6.7942 2.0464 7.2182 0.04307 0.43068-12.727 1.3566-14.493 0.25838 0.68909-1.0552 3.6363-3.3317 12.425-7.4724 0.0067-0.0031 0.01395-0.0044 0.02119-0.0041z"/><path d="m71.515 123.78c0.62449 1.9381 4.7112 7.9348 4.5589 9.3661-0.15227 1.4313-2.2231 3.7763-2.284 6.9435-0.06091 3.1672 0.82226 5.0858-0.60908 9.0144-1.4313 3.9286-0.51772 6.0604-0.03045 4.7508 0.48726-1.3095 2.5581-5.2685 3.1977-5.8167 0.63953-0.54817 1.1573 4.7204 1.2486 10.08 0.09136 5.3599 0.54817 15.227-0.60908 20.404-1.1573 5.1772-2.3145 7.0044-2.7409 11.755-0.42635 4.7508-0.18272 7.248-0.18272 7.248s3.3499-3.0454 5.1772-8.1617c1.8932-5.301 1.6944-6.9547 2.3145-10.72 0.85271-5.1772 1.0354-21.074 0.60908-26.251-0.42636-5.1772-2.4972-8.8316-3.289-9.7453-0.7918-0.91362 0.24363-3.0454 0.7918-3.959s-0.06091 0.85271 4.3854 2.01 10.781-0.36545 14.131-2.0709c3.3499-1.7054 6.2735-6.0908 6.2735-6.0908s-3.5936 2.9236-10.05 3.6545c-6.4562 0.7309-11.39 1.6445-14.435-3.5327s-6.0115-8.4997-8.457-8.8789z"/><path d="m116.07 83.961c0.86855 0.05857 1.233 0.8513 1.233 1.5296 0 0.77523-1.6793 6.4603-0.47335 8.9152 11.026 2.6272 15.311 9.4537 15.311 9.4537s8.0755-1.8107 13.179 4.9098c2.7839 3.6659 4.2471 8.564 4.1992 13.803-0.0425 4.6479 0.50718 6.4282 1.2056 12.834 0.83589 7.667 0.0863 15.16 0.0863 15.16s-1.1199-1.8516-2.2396-9.001c-1.1198-7.1494-2.4116-10.552-4.8235-12.878-1.9783-1.9077-4.393-3.9191-4.393-3.9191h5.5557s0.68893-10.939-4.7377-14.816c-5.4266-3.8762-9.2006-4.1884-11.058-4.1579-2.685 0.35745-4.6748 1.881-7.3319 1.9963-5.6367 0.24459-9.4125 0.24755-12.146 0.22376-2.9098-0.0253-2.8419-2.0623-1.249-5.7712 1.3893-3.2348 3.0032-5.1399 4.5656-8.8289 1.5505-3.6608 1.478-9.227 2.713-9.432 0.14505-0.02408 0.27951-0.03059 0.40359-0.02222zm-1.5012 12.443c-0.45589 0.01961-2.004 6.7942-2.0464 7.2182-0.0431 0.43068 12.727 1.3566 14.493 0.25838-0.68909-1.0552-3.6363-3.3317-12.425-7.4724-7e-3 -0.0031-0.0139-0.0044-0.0212-0.0041z"/><path d="m139.16 123.78c-0.62449 1.9381-4.7112 7.9348-4.5589 9.3661 0.15227 1.4313 2.2231 3.7763 2.284 6.9435 0.0609 3.1672-0.82226 5.0858 0.60908 9.0144 1.4313 3.9286 0.51772 6.0604 0.0305 4.7508-0.48727-1.3095-2.5581-5.2685-3.1977-5.8167-0.63953-0.54817-1.1572 4.7204-1.2486 10.08-0.0914 5.3599-0.54818 15.227 0.60908 20.404 1.1572 5.1772 2.3145 7.0044 2.7409 11.755 0.42635 4.7508 0.18272 7.248 0.18272 7.248s-3.3499-3.0454-5.1772-8.1617c-1.8932-5.301-1.6944-6.9547-2.3145-10.72-0.85271-5.1772-1.0354-21.074-0.60908-26.251 0.42635-5.1772 2.4972-8.8316 3.289-9.7453s-0.24363-3.0454-0.7918-3.959c-0.54818-0.91362 0.0609 0.85271-4.3854 2.01s-10.781-0.36545-14.131-2.0709c-3.3499-1.7054-6.2735-6.0908-6.2735-6.0908s3.5936 2.9236 10.05 3.6545c6.4562 0.7309 11.39 1.6445 14.435-3.5327 3.0454-5.1772 6.0115-8.4997 8.457-8.8789z"/></g><g transform="translate(1.038)"><path d="m114.94 187.6s-1.7985 2.782-10.392 2.782c-7.7097 0-10.866-2.7594-10.866-2.7594l-3.0455-4.6484-2.8156-7.6831 1.34-24.729 4.9945-8.1617 19.003-0.48727 5.7254 8.6489 0.48727 10.598 0.73089 16.323z" fill="#f2956a"/><path d="m104.3 139.75s-2.3152 0.0295-4.8907 0.0599c-2.5886 0.0305-4.0502 0.33505-6.9737 1.8273-2.9236 1.4922-4.4931 4.8396-4.1114 7.8269 0.30695 2.4019-1.5226 2.3146-1.7358 4.964-0.21318 2.6495 0.94409 4.0198 0.91364 6.5779-0.03045 2.5581-0.61043 2.9754-0.27544 5.0767 0.33499 2.1013 0.1534 3.2069-0.36432 4.4555-0.51772 1.2486-0.4547 2.8054 0.32143 7.0259 0.77678 4.224 6.4895 10.049 6.4895 10.049s-4.5876-10.253-4.8312-13.238c-0.24363-2.9845 0.7611-5.086 1.1265-5.5428 0.36545-0.45681 1.4317 0.85318 4.3248 2.1932 2.8931 1.34 5.9688 0.63916 8.3137 0.12144 0.64789-0.14304 0.98044-0.25517 1.0904-0.34675 0.0407 0.20313 0.0724 0.37985 0.0904 0.51883-0.0595 1.0337-0.061 2.2261-0.0227 3.3771-0.0634 2.1338-0.14223 4.5417-0.0145 5.2219 0.13019 0.69147 0.49093 0.67645 0.49093 0.67645s0.51425 0.015 0.6444-0.67645c0.12805-0.68024 0.0498-3.088-0.0139-5.2219 0.0383-1.151 0.0361-2.3434-0.0233-3.3771 0.0171-0.13179 0.0482-0.30213 0.0858-0.49196 0.14067 0.0864 0.47434 0.19083 1.0588 0.31988 2.3449 0.51772 5.4206 1.2185 8.3137-0.12144 2.8931-1.34 3.9588-2.65 4.3243-2.1932 0.36543 0.45681 1.3707 2.5583 1.1271 5.5428-0.24363 2.9845-4.8312 13.238-4.8312 13.238s5.7122-5.825 6.489-10.049c0.77613-4.2205 0.83915-5.7773 0.32143-7.0259-0.51771-1.2486-0.69881-2.3542-0.36381-4.4555 0.33499-2.1013-0.24498-2.5186-0.27543-5.0767-0.0305-2.5581 1.1268-3.9284 0.91364-6.5779-0.21318-2.6495-2.0428-2.5622-1.7358-4.964 0.38176-2.9873-1.1878-6.3347-4.1114-7.8269-2.9236-1.4922-4.3852-1.7968-6.9737-1.8273-2.5755-0.0303-4.8912-0.0599-4.8912-0.0599zm-0.91726 3.8737c-0.0327 0.45633-0.21075 2.9806-0.38602 6.0188-0.30173 0.0145-0.65242 0.0346-1.0594 0.0346-1.1877 0-4.6903-0.30458-6.6089 0.39584-1.9186 0.70044-3.4106 0.97462-3.4106 0.97462s0.06086-2.6799 0.85266-3.9894c0.7918-1.3095 3.1979-2.7408 6.0606-3.1063 2.0377-0.26013 3.6206-0.31084 4.5517-0.32814zm1.9043 1e-3c0.93573 0.0186 2.4773 0.071 4.4824 0.32711 2.8627 0.36545 5.2688 1.7967 6.0606 3.1063 0.79181 1.3095 0.85266 3.9894 0.85266 3.9894s-1.4926-0.27418-3.4112-0.97462c-1.9186-0.70042-5.4207-0.39584-6.6084-0.39584-0.38271 0-0.71617-0.0179-1.0087-0.0325-0.16579-3.016-0.33223-5.504-0.36742-6.0198zm-2.3192 6.5355c-0.15044 2.6737-0.27869 5.4633-0.25993 7.0388h5.2e-4c0.0122 1.026 0.0988 1.7973 0.22324 2.4309-0.55968-0.0154-3.0359-0.16527-5.471 0.0667-2.5581 0.24363-6.2739 1.2486-6.5784 0.48731-0.30454-0.76134 5.8e-5 -2.5276-0.39584-3.9589-0.3959-1.4313-0.09109-2.6195 1.5839-3.5331 1.675-0.91362 4.02-0.63939 5.9082-1.218 1.5665-0.48005 3.8891-0.91747 4.9894-1.3136zm2.7156 0.0176c1.1196 0.39152 3.3953 0.82306 4.9387 1.296 1.8881 0.57863 4.2332 0.3044 5.9082 1.218 1.675 0.91362 1.9798 2.1018 1.5839 3.5331-0.3959 1.4313-0.0919 3.1976-0.39635 3.9589-0.30454 0.76133-4.0198-0.24368-6.5779-0.48731-2.4588-0.23417-4.9834-0.0784-5.5082-0.0656 0.16421-0.63331 0.28544-1.4049 0.29766-2.4319 0.0187-1.5685-0.10283-4.3488-0.24598-7.0213zm-0.19637 9.9493c0.29086 0.23176 0.90741 0.51428 2.1508 0.78755 2.7713 0.60908 4.8419 1.1876 6.4864 0.82217 1.6445-0.36545 2.6801-0.94397 3.2587-0.36535 0.57862 0.57863 1.0052 3.1672 1.0356 4.4767 0.0305 1.3095-0.88301 1.9187-3.4411 2.7714-2.5581 0.85271-5.4517 1.5835-7.553 1.7358-1.1263 0.0816-2.1232 0.15499-2.451 0.28473 0.31114-1.4955 1.0313-4.2377 0.95809-5.6446-0.0456-0.87761-0.54312-2.2454-0.98392-3.5269 0.17302-0.39704 0.36784-0.82145 0.5395-1.3415zm-2.4319 0.0444c0.16054 0.60914 0.35628 1.0855 0.5488 1.5488-0.41693 1.2056-0.85601 2.4556-0.89865 3.2752-0.0734 1.4113 0.65167 4.1673 0.96118 5.6596-0.28543-0.13945-1.3209-0.21494-2.4908-0.29972-2.1013-0.15227-4.9944-0.8831-7.5525-1.7358-2.5581-0.85271-3.4716-1.4619-3.4411-2.7714 0.03045-1.3095 0.45697-3.8981 1.0356-4.4767 0.57862-0.57862 1.6137-1e-4 3.2582 0.36535s3.7156-0.21309 6.4869-0.82217c1.165-0.25604 1.778-0.51985 2.0924-0.74311z" fill="#f35207"/></g></g></g></g></svg>
