<?xml version="1.0" encoding="UTF-8" standalone="no"?>
<!-- Created with Inkscape (http://www.inkscape.org/) -->

<svg
   width="210mm"
   height="297mm"
   viewBox="0 0 210 297"
   version="1.1"
   id="svg1"
   xml:space="preserve"
   xmlns="http://www.w3.org/2000/svg"
   xmlns:svg="http://www.w3.org/2000/svg"><defs
     id="defs1" /><g
     id="layer1"><g
       id="g8"
       transform="translate(-0.3385716,-5.8126593)"><path
         id="path8"
         style="fill:#ffffff;fill-opacity:1;stroke:none;stroke-width:0.286239;stroke-linecap:round;stroke-linejoin:round;stroke-opacity:1"
         d="m 165.69847,139.60245 a 65.000005,64.999998 0 0 1 -65,65 65.000005,64.999998 0 0 1 -64.999996,-65 65.000005,64.999998 0 0 1 64.999996,-65.000003 65.000005,64.999998 0 0 1 65,65.000003 z" /><g
         id="g1"
         transform="translate(-4.9999994,-4.0064292)"
         style="stroke:none"><g
           id="g6"
           style="stroke:none"><path
             id="path1"
             style="fill:#a7a7a7;fill-opacity:1;stroke:none;stroke-width:0.264583;stroke-opacity:1"
             d="m 94.605595,83.961283 c -0.868547,0.05857 -1.233,0.851295 -1.233,1.529623 0,0.775231 1.679274,6.460317 0.473356,8.915218 -11.025511,2.627173 -15.310693,9.453686 -15.310693,9.453686 0,0 -8.075461,-1.81066 -13.179041,4.90978 -2.783913,3.66587 -4.247116,8.56402 -4.199226,13.80329 0.04249,4.6479 -0.507184,6.42816 -1.205612,12.83436 -0.835886,7.66702 -0.0863,15.1598 -0.0863,15.1598 0,0 1.119877,-1.85164 2.239656,-9.001 1.119778,-7.14936 2.411648,-10.55208 4.823479,-12.87777 1.978345,-1.90769 4.393013,-3.91914 4.393013,-3.91914 h -5.555733 c 0,0 -0.688926,-10.93948 4.737695,-14.81563 5.426619,-3.87616 9.200549,-4.18835 11.05824,-4.15789 2.685042,0.35745 4.674791,1.88096 7.331852,1.99626 5.636685,0.24459 9.41246,0.24755 12.145509,0.22376 2.90982,-0.0253 2.8419,-2.06231 1.24902,-5.77122 -1.38926,-3.234796 -3.003184,-5.139863 -4.56561,-8.828923 -1.550463,-3.660815 -1.477958,-9.226992 -2.713013,-9.431983 -0.145056,-0.02408 -0.279515,-0.03059 -0.403593,-0.02222 z m 1.5012,12.443168 c 0.455894,0.01961 2.003991,6.794209 2.046387,7.218169 0.04307,0.43068 -12.726851,1.35663 -14.492655,0.25838 0.689094,-1.05518 3.63628,-3.33171 12.425081,-7.472414 0.0067,-0.0031 0.01395,-0.0044 0.02119,-0.0041 z" /><path
             style="fill:#a7a7a7;fill-opacity:1;stroke:none;stroke-width:0.264583;stroke-linecap:round;stroke-linejoin:round;stroke-opacity:1"
             d="m 71.515152,123.77871 c 0.624493,1.93808 4.711184,7.9348 4.558913,9.36613 -0.15227,1.43134 -2.22314,3.7763 -2.28405,6.94351 -0.06091,3.16722 0.822259,5.08582 -0.609078,9.01438 -1.431338,3.92857 -0.517719,6.06035 -0.03045,4.75083 0.487265,-1.30953 2.558135,-5.26854 3.197669,-5.81672 0.639533,-0.54817 1.157251,4.72037 1.248614,10.08027 0.09136,5.3599 0.548172,15.227 -0.609081,20.40418 -1.157251,5.17718 -2.314504,7.00441 -2.740859,11.75524 -0.426354,4.75082 -0.182724,7.24805 -0.182724,7.24805 0,0 3.34994,-3.0454 5.177179,-8.16167 1.893225,-5.30103 1.694363,-6.95466 2.314504,-10.71981 0.852709,-5.17717 1.035433,-21.07416 0.609079,-26.25134 -0.426355,-5.17717 -2.497228,-8.83165 -3.289031,-9.74527 -0.791805,-0.91362 0.243631,-3.0454 0.791803,-3.95902 0.548172,-0.91362 -0.06091,0.85271 4.385374,2.00996 4.446284,1.15725 10.780715,-0.36545 14.130652,-2.07087 3.349934,-1.70542 6.273514,-6.0908 6.273514,-6.0908 0,0 -3.59357,2.92359 -10.049809,3.65448 -6.456246,0.7309 -11.389791,1.64452 -14.43519,-3.53266 -3.045399,-5.17718 -6.011519,-8.49972 -8.457025,-8.87887 z"
             id="path2" /><path
             id="path3"
             style="fill:#a7a7a7;fill-opacity:1;stroke:none;stroke-width:0.264583;stroke-opacity:1"
             d="m 116.07155,83.961283 c 0.86855,0.05857 1.233,0.851295 1.233,1.529623 0,0.775231 -1.67927,6.460317 -0.47335,8.915218 11.02551,2.627173 15.31069,9.453686 15.31069,9.453686 0,0 8.07546,-1.81066 13.17904,4.90978 2.78391,3.66587 4.24711,8.56402 4.19922,13.80329 -0.0425,4.6479 0.50718,6.42816 1.20561,12.83436 0.83589,7.66702 0.0863,15.1598 0.0863,15.1598 0,0 -1.11988,-1.85164 -2.23965,-9.001 -1.11978,-7.14936 -2.41165,-10.55208 -4.82348,-12.87777 -1.97834,-1.90769 -4.39301,-3.91914 -4.39301,-3.91914 h 5.55573 c 0,0 0.68893,-10.93948 -4.73769,-14.81563 -5.42662,-3.87616 -9.20055,-4.18835 -11.05824,-4.15789 -2.68505,0.35745 -4.67479,1.88096 -7.33186,1.99626 -5.63668,0.24459 -9.41246,0.24755 -12.1455,0.22376 -2.90982,-0.0253 -2.8419,-2.06231 -1.24902,-5.77122 1.38926,-3.234796 3.00318,-5.139863 4.56561,-8.828923 1.55046,-3.660815 1.47795,-9.226992 2.71301,-9.431983 0.14505,-0.02408 0.27951,-0.03059 0.40359,-0.02222 z m -1.5012,12.443168 c -0.45589,0.01961 -2.00399,6.794209 -2.04639,7.218169 -0.0431,0.43068 12.72686,1.35663 14.49266,0.25838 -0.68909,-1.05518 -3.63628,-3.33171 -12.42508,-7.472414 -0.007,-0.0031 -0.0139,-0.0044 -0.0212,-0.0041 z" /><path
             style="fill:#a7a7a7;fill-opacity:1;stroke:none;stroke-width:0.264583;stroke-opacity:1"
             d="m 139.16199,123.77871 c -0.62449,1.93808 -4.71118,7.9348 -4.55891,9.36613 0.15227,1.43134 2.22314,3.7763 2.28405,6.94351 0.0609,3.16722 -0.82226,5.08582 0.60908,9.01438 1.43134,3.92857 0.51772,6.06035 0.0305,4.75083 -0.48727,-1.30953 -2.55814,-5.26854 -3.19767,-5.81672 -0.63953,-0.54817 -1.15725,4.72037 -1.24861,10.08027 -0.0914,5.3599 -0.54818,15.227 0.60908,20.40418 1.15725,5.17718 2.3145,7.00441 2.74086,11.75524 0.42635,4.75082 0.18272,7.24805 0.18272,7.24805 0,0 -3.34994,-3.0454 -5.17718,-8.16167 -1.89322,-5.30103 -1.69436,-6.95466 -2.3145,-10.71981 -0.85271,-5.17717 -1.03544,-21.07416 -0.60908,-26.25134 0.42635,-5.17717 2.49723,-8.83165 3.28903,-9.74527 0.7918,-0.91362 -0.24363,-3.0454 -0.7918,-3.95902 -0.54818,-0.91362 0.0609,0.85271 -4.38538,2.00996 -4.44628,1.15725 -10.78071,-0.36545 -14.13065,-2.07087 -3.34993,-1.70542 -6.27351,-6.0908 -6.27351,-6.0908 0,0 3.59357,2.92359 10.04981,3.65448 6.45624,0.7309 11.38979,1.64452 14.43519,-3.53266 3.04539,-5.17718 6.01151,-8.49972 8.45702,-8.87887 z"
             id="path4" /></g><g
           id="g7"
           transform="translate(1.0379623)"
           style="stroke:none"><path
             style="fill:#f2956a;fill-opacity:1;stroke:none;stroke-width:0.264999;stroke-linecap:round;stroke-linejoin:round;stroke-dasharray:none;stroke-opacity:1"
             d="m 114.93735,187.60211 c 0,0 -1.79848,2.78196 -10.39161,2.78196 -7.70973,0 -10.865647,-2.75937 -10.865647,-2.75937 l -3.045467,-4.64841 -2.815626,-7.68312 1.339975,-24.72864 4.994455,-8.16167 19.00329,-0.48727 5.72535,8.64894 0.48727,10.59798 0.73089,16.32334 z"
             id="path7" /><path
             id="path5"
             style="fill:#f35207;fill-opacity:1;stroke:none;stroke-width:0.265;stroke-linecap:round;stroke-linejoin:round;stroke-dasharray:none;stroke-opacity:1"
             d="m 104.30061,139.75426 c 0,0 -2.31517,0.0295 -4.890657,0.0599 -2.588583,0.0305 -4.050158,0.33505 -6.973735,1.82728 -2.923579,1.49224 -4.493134,4.83964 -4.111377,7.82692 0.306948,2.40188 -1.522633,2.31455 -1.735811,4.96403 -0.213176,2.6495 0.944089,4.01977 0.913639,6.5779 -0.03045,2.55812 -0.610429,2.97536 -0.275435,5.07669 0.334994,2.10132 0.153397,3.20693 -0.364319,4.45554 -0.517716,1.24862 -0.4547,2.80544 0.321427,7.02593 0.776782,4.22405 6.489527,10.049 6.489527,10.049 0,0 -4.5876,-10.25347 -4.83123,-13.23795 -0.243634,-2.98449 0.7611,-5.08601 1.126546,-5.54282 0.365447,-0.45681 1.431678,0.85318 4.324801,2.19315 2.893123,1.33998 5.968754,0.63916 8.313704,0.12144 0.64789,-0.14304 0.98044,-0.25517 1.09037,-0.34675 0.0407,0.20313 0.0724,0.37985 0.0904,0.51883 -0.0595,1.03368 -0.061,2.22608 -0.0227,3.37706 -0.0634,2.13385 -0.14223,4.54166 -0.0145,5.2219 0.13019,0.69147 0.49093,0.67645 0.49093,0.67645 0,0 0.51425,0.015 0.6444,-0.67645 0.12805,-0.68024 0.0498,-3.08805 -0.0139,-5.2219 0.0383,-1.15098 0.0361,-2.34338 -0.0233,-3.37706 0.0171,-0.13179 0.0482,-0.30213 0.0858,-0.49196 0.14067,0.0864 0.47434,0.19083 1.05885,0.31988 2.34493,0.51772 5.42057,1.21854 8.3137,-0.12144 2.89313,-1.33997 3.95884,-2.64996 4.32429,-2.19315 0.36543,0.45681 1.3707,2.55833 1.12706,5.54282 -0.24363,2.98448 -4.83123,13.23795 -4.83123,13.23795 0,0 5.71223,-5.82495 6.48901,-10.049 0.77613,-4.22049 0.83915,-5.77731 0.32143,-7.02593 -0.51771,-1.24861 -0.69881,-2.35422 -0.36381,-4.45554 0.33499,-2.10133 -0.24498,-2.51857 -0.27543,-5.07669 -0.0305,-2.55813 1.12682,-3.9284 0.91364,-6.5779 -0.21318,-2.64948 -2.04276,-2.56215 -1.73581,-4.96403 0.38176,-2.98728 -1.18781,-6.33468 -4.11138,-7.82692 -2.92359,-1.49223 -4.38516,-1.79683 -6.97374,-1.82728 -2.57548,-0.0303 -4.89117,-0.0599 -4.89117,-0.0599 z m -0.91726,3.87367 c -0.0327,0.45633 -0.21075,2.98062 -0.38602,6.01875 -0.30173,0.0145 -0.65242,0.0346 -1.05937,0.0346 -1.18769,0 -4.690299,-0.30458 -6.608895,0.39584 -1.918598,0.70044 -3.410645,0.97462 -3.410645,0.97462 0,0 0.06086,-2.6799 0.852662,-3.98942 0.791803,-1.30953 3.197941,-2.74082 6.060612,-3.10627 2.037656,-0.26013 3.620636,-0.31084 4.551656,-0.32814 z m 1.90428,0.001 c 0.93573,0.0186 2.47732,0.071 4.48241,0.32711 2.86268,0.36545 5.26882,1.79674 6.06062,3.10627 0.79181,1.30952 0.85266,3.98942 0.85266,3.98942 0,0 -1.49257,-0.27418 -3.41116,-0.97462 -1.91859,-0.70042 -5.42069,-0.39584 -6.60839,-0.39584 -0.38271,0 -0.71617,-0.0179 -1.00872,-0.0325 -0.16579,-3.01599 -0.33223,-5.50402 -0.36742,-6.01979 z m -2.31924,6.53552 c -0.15044,2.67367 -0.27869,5.46327 -0.25993,7.03884 h 5.2e-4 c 0.0122,1.02603 0.0988,1.79729 0.22324,2.43086 -0.55968,-0.0154 -3.035863,-0.16527 -5.470985,0.0667 -2.558129,0.24363 -6.27387,1.24864 -6.57841,0.48731 -0.304541,-0.76134 5.8e-5,-2.52761 -0.395842,-3.95894 -0.395903,-1.43132 -0.09109,-2.61949 1.583883,-3.53311 1.674968,-0.91362 4.020024,-0.63939 5.908166,-1.21802 1.566492,-0.48005 3.889128,-0.91747 4.989358,-1.31361 z m 2.7156,0.0176 c 1.11963,0.39152 3.39529,0.82306 4.93872,1.29604 1.88814,0.57863 4.23319,0.3044 5.90816,1.21802 1.67496,0.91362 1.97978,2.10179 1.58388,3.53311 -0.3959,1.43133 -0.0919,3.1976 -0.39635,3.95894 -0.30454,0.76133 -4.01977,-0.24368 -6.5779,-0.48731 -2.4588,-0.23417 -4.98335,-0.0784 -5.50819,-0.0656 0.16421,-0.63331 0.28544,-1.40493 0.29766,-2.4319 0.0187,-1.56854 -0.10283,-4.34885 -0.24598,-7.02127 z m -0.19637,9.94926 c 0.29086,0.23176 0.90741,0.51428 2.15077,0.78755 2.77131,0.60908 4.84191,1.18762 6.48643,0.82217 1.6445,-0.36545 2.68008,-0.94397 3.25871,-0.36535 0.57862,0.57863 1.00515,3.1672 1.0356,4.47673 0.0305,1.30952 -0.88301,1.9187 -3.44114,2.77141 -2.55811,0.85271 -5.45171,1.58354 -7.55302,1.73581 -1.12634,0.0816 -2.1232,0.15499 -2.45102,0.28473 0.31114,-1.49554 1.03128,-4.23768 0.95809,-5.64461 -0.0456,-0.87761 -0.54312,-2.24538 -0.98392,-3.52692 0.17302,-0.39704 0.36784,-0.82145 0.5395,-1.34152 z m -2.43189,0.0444 c 0.16054,0.60914 0.35628,1.08553 0.5488,1.54875 -0.41693,1.20559 -0.85601,2.45556 -0.89865,3.27525 -0.0734,1.41133 0.65167,4.16731 0.96118,5.6596 -0.28543,-0.13945 -1.32086,-0.21494 -2.49081,-0.29972 -2.101312,-0.15227 -4.994377,-0.8831 -7.552507,-1.73581 -2.558129,-0.85271 -3.471583,-1.46189 -3.441134,-2.77141 0.03045,-1.30953 0.456972,-3.8981 1.035596,-4.47673 0.578624,-0.57862 1.613687,-1e-4 3.258199,0.36535 1.644512,0.36545 3.715638,-0.21309 6.486946,-0.82217 1.16497,-0.25604 1.77805,-0.51985 2.09238,-0.74311 z" /></g></g></g></g></svg>
